<?xml version="1.0" encoding="UTF-8"?>
<svg id="Layer_1" data-name="Layer 1" xmlns="http://www.w3.org/2000/svg" xmlns:xlink="http://www.w3.org/1999/xlink" version="1.1" viewBox="0 0 720 720">
  <defs>
    <style>
      .cls-1 {
        clip-path: url(#clippath);
      }

      .cls-2 {
        fill: none;
      }

      .cls-2, .cls-3 {
        stroke-width: 0px;
      }

      .cls-3 {
        fill: #ffffff;
      }
    </style>
    <clipPath id="clippath">
      <rect class="cls-2" width="720" height="720"/>
    </clipPath>
  </defs>
  <g class="cls-1">
    <path class="cls-3" d="M528,516.4l125.9,126-11.3,11.3-125.9-126-14-14,11.3-11.3,14,14ZM555.6,397.8l3.3,9.4c43.1-15.1,75.3-52.2,84-96.9l-9.8-1.9c-8.1,41.2-37.8,75.5-77.5,89.4ZM447.9,589.2c8.8,16.1,13.2,39.9,1,65.7h-10.6c-2.8,0-5,2.2-5,5s2.2,5,5,5h5.1c-2.6,4.1-5.7,8.3-9.3,12.5.3-1.6-.2-3.2-1.4-4.4-1-.9-2.2-1.4-3.5-1.4s-2.6.5-3.6,1.5l-11.2,11.6c-1.9,2-1.9,5.1.1,7.1s2.3,1.4,3.6,1.4c-3.9,3.3-8,6.5-12.6,9.8,0,0-.1,0-.1,0v-5.1c0-2.8-2.2-5-5-5s-5,2.2-5,5v11.4c-30.2,17.1-55.1,11.6-77.3-2.3l3.3-3.9c1.8-2.1,1.5-5.3-.6-7-2.1-1.8-5.3-1.5-7,.6l-4,4.7c-5.6-4.1-11.1-8.6-16.4-13.4l36.5-43.2c8.6-10.5-4.2-15.6-4.8-20.5-.6-5.3,1.3-9.3,3.9-12.2v-48l-20.3-36.6,8.7-4.9,19.5,35.1h44.2c7.8-5.7,19-9.7,27.2-6-.1.1,25.4,11.4,39.6,37.4ZM372.1,567.9h-33.3v38.4l19.4,5.4c9.8,2.6,18.9,3.7,23.9-3.6,4.3-6.4,6.6-10.6,8.7-16.8,3.9-11.4-14.4-20.5-18.7-23.4ZM424.7,580.7c-2.1-1.8-5.3-1.5-7,.6l-11.8,14c-1.8,2.1-1.5,5.3.6,7,2.1,1.8,5.3,1.5,7-.6l11.8-14c1.7-2.1,1.5-5.3-.6-7ZM653.9,77.5l-11.3-11.3-111.2,111.3c6.2.9,12.4,2.3,18.4,4.2l104.1-104.2ZM273,130.8c-8.8-16.1-13.2-39.9-1-65.7h10.6c2.8,0,5-2.2,5-5s-2.2-5-5-5h-5.1c2.6-4.1,5.7-8.3,9.3-12.5-.3,1.6.2,3.2,1.4,4.4,1,.9,2.2,1.4,3.5,1.4s2.6-.5,3.6-1.5l11.2-11.6c1.9-2,1.9-5.1-.1-7.1s-2.3-1.4-3.6-1.4c3.9-3.3,8-6.5,12.6-9.8,0,0,.1,0,.1-.1v5.1c0,2.8,2.2,5,5,5s5-2.2,5-5v-11.3c30.3-17.2,55.2-11.6,77.5,2.3l-3.3,3.9c-1.8,2.1-1.5,5.3.6,7,2.1,1.8,5.3,1.5,7-.6l4-4.7c5.6,4.1,11.1,8.6,16.4,13.4l-36.5,43.2c-8.6,10.5,4.2,15.6,4.8,20.5.6,5.3-1.3,9.3-3.9,12.2v48l20.3,36.6-8.7,4.9-19.5-35.1h-44.3c-7.8,5.7-19,9.7-27.2,6,0-.2-25.5-11.5-39.7-37.5ZM348.8,152.1h33.3v-38.4l-19.4-5.4c-9.8-2.6-18.9-3.7-23.9,3.6-4.3,6.4-6.6,10.6-8.7,16.8-3.9,11.4,14.4,20.5,18.7,23.4ZM296.2,139.3c2.1,1.8,5.3,1.5,7-.6l11.8-14c1.8-2.1,1.5-5.3-.6-7-2.1-1.8-5.3-1.5-7,.6l-11.8,14c-1.7,2.1-1.5,5.3.6,7ZM280,530.7l-84.3-152.1-14,7.8,32.3,58.2c-2,.8-4.1,1.6-6.3,2.2-35.4,10.5-72.7-9.8-83.2-45.3-10.5-35.4,9.8-72.8,45.2-83.3,35.4-10.5,72.7,9.8,83.2,45.3,7.3,24.8-.4,50.6-17.9,67.4l15.9,28.6c30.2-24.4,44.4-65.5,32.7-105.1-15.5-52.4-70.5-82.4-122.9-66.9-52.4,15.5-82.3,70.6-66.8,123s70.5,82.4,122.9,66.9c4.4-1.3,8.7-2.9,12.8-4.8l28.7,51.8-23.2,12.9,35.1,63.4,14-7.8-27.4-49.4,23.2-12.8ZM494.6,437.3c-.6,3-2.9,5.5-5.9,6.4l-79.7,23.6c-5.1,1.5-10.4-1.4-11.9-6.5-1.2-4,.3-8.2,3.7-10.6l26-18.1-12.2-22.1-146.2,81.2-11.7-21.1,111.3-144.2-15.4-27.8,14-7.8,14.8,26.8,132.8-39.3,8.3,12.9-43.6,50.2c16,10.9,36.6,14.7,56.5,8.8,35.4-10.5,55.7-47.8,45.2-83.3-10.5-35.4-47.8-55.7-83.2-45.3-29.4,8.7-48.4,36-47.9,65.3l-31.4,9.3c-5-46.6,23.8-91.5,70.3-105.3,52.4-15.5,107.4,14.4,122.9,66.9,15.5,52.4-14.4,107.5-66.8,123-46.5,13.8-95-8.3-116.2-50.1l31.4-9.3c2.1,3.4,4.5,6.5,7.1,9.4l25.6-29.5-103.1,30.5,29.8,53.9,20-23c3.8,3.8,7.8,7.3,12.1,10.5l-23.8,27.5,12.6,22.7,1-.7c3.3-2.3,6.9-4,10.6-5.1,11.6-3.4,24.5-1,34.2,7l5.9,5c2.4,2,3.5,5.1,2.9,8.2ZM406.8,396l-30.4-54.9-97,125.8,127.4-70.9ZM291.4,322.5l8.6-5.1c-16-27.3-41.3-47.8-71.2-57.6l-3.1,9.5c27.6,9.1,51,28,65.7,53.2ZM218.2,206.3L78.3,66.3l-11.3,11.3,139.9,140,11.3-11.3ZM68.1,641.7l11.3,11.3,125.9-126-11.3-11.3-125.9,126Z"/>
  </g>
</svg>