<?xml version="1.0" encoding="UTF-8"?>
<svg id="Layer_1" data-name="Layer 1" xmlns="http://www.w3.org/2000/svg" xmlns:xlink="http://www.w3.org/1999/xlink" version="1.1" viewBox="0 0 720 720">
  <defs>
    <style>
      .cls-1 {
        clip-path: url(#clippath);
      }

      .cls-2 {
        fill: none;
      }

      .cls-2, .cls-3 {
        stroke-width: 0px;
      }

      .cls-3 {
        fill: #ffffff;
      }
    </style>
    <clipPath id="clippath">
      <rect class="cls-2" width="720" height="720"/>
    </clipPath>
  </defs>
  <g class="cls-1">
    <path class="cls-3" d="M88.1,225c0-7.7,6.3-14,14-14s14,6.3,14,14-6.3,14-14,14-14-6.2-14-14ZM212.1,68.3c-7.7,0-14,6.3-14,14s6.3,14,14,14,14-6.3,14-14-6.3-14-14-14ZM508.9,165.2c7.7,0,14-6.3,14-14s-6.3-14-14-14-14,6.3-14,14c0,7.7,6.3,14,14,14ZM149.4,400.2v-1.3c.3-29.2-18.8-50.1-36.8-57.5-2.5-1-2-4.8.6-5.1,5.7-.7,26.2,0,33-1.3,20.2-4,34.2-18.4,38.5-34.2,4.9-18,28.3-17.7,30.8,8.4,1.8,18.7,19.6,30.4,29.4,32.1,9.6,1.7,15.5-.9,20.9-.9,8.7,0,15.6,7.8,14.7,17-.8,7.9-7.5,13.7-15.2,13.8-11.1.1-22.2-1.8-37.1-2.8-27.8-1.8-57.8,11.3-72.9,33.8-1.8,2.7-6,1.3-5.9-2ZM184.6,337.9c0,7.7,6.3,14,14,14s14-6.3,14-14-6.3-14-14-14-14,6.3-14,14ZM45.3,441.6c-7.7,0-14,6.3-14,14s6.3,14,14,14,14-6.3,14-14-6.2-14-14-14ZM45.6,217.6c8-8.1,8.5-8.8,18.1-18.6,15.7-15.9,24.6-19.6,34.4-19.6s3.6.1,5.5.3c14.9,1.5,24.6,15,33.1,33,13.3,28.1-11.6,48.5-32.9,48.5s-6.6-.5-9.6-1.6c-3.3-1.2-6.3-1.6-9.3-1.6-17.2,0-29.2,17.1-42.3,17.1s-8-1.6-12.3-5.6c-16.1-15.4-7.2-29,15.3-51.9ZM32.1,253.6c0,.9,0,3.8,5.2,8.7,3,2.9,4.7,2.9,5.4,2.9,3.2,0,8.1-3.1,12.8-6.1,7.7-4.9,17.4-11,29.5-11s8.4.7,12.6,2.2c1.9.7,4,1,6.3,1,9.2,0,18.9-5.2,23.6-12.6,4-6.3,4.1-13.6.3-21.6-8.6-18-16.3-26.5-25.1-27.3-1.8-.2-3.2-.3-4.5-.3-5.8,0-12.2,1.3-27.3,16.6-4.8,4.9-7.3,7.5-9.7,9.9-2.3,2.4-4.5,4.6-8.5,8.7-10.7,10.9-20.7,22-20.6,28.9ZM226.5,188.7c7.7,0,14-6.3,14-14s-6.3-14-14-14-14,6.3-14,14,6.3,14,14,14ZM71.7,519.5c-2.4.6-4.6.9-6.6.9-12.4,0-20-11.6-53-42.7C3.7,469.8,0,461.5,0,453.6c0-24.5,33.7-46,60.6-46s31.9,9,32.5,31.9c1.2,52.2-.9,75-21.5,80ZM69.3,509.8c4.4-1.1,8.9-3.1,11.6-14.9,2.7-11.9,2.9-30.6,2.2-55.1-.4-14.9-7.7-22.2-22.5-22.2s-24.3,4.6-34.6,11.9c-10.2,7.3-16,16.1-16,24s3,11.3,8.8,16.8c8.4,7.9,15.2,14.6,20.7,20,15.1,14.8,20.6,20,25.5,20,1.2.1,2.6,0,4.3-.5ZM493.5,531.3c-7.7,0-14,6.3-14,14s6.3,14,14,14,14-6.3,14-14-6.3-14-14-14ZM570.6,319.8v1.3c-.3,29.2,18.8,50.1,36.8,57.5,2.5,1,2,4.8-.6,5.1-5.7.7-26.2,0-33,1.3-20.2,4-34.2,18.4-38.5,34.2-4.9,18-28.3,17.7-30.8-8.4-1.8-18.7-19.6-30.4-29.4-32.1-9.6-1.7-15.5.9-20.9.9-8.7,0-15.6-7.8-14.7-17,.8-7.9,7.5-13.7,15.2-13.8,11.1-.1,22.2,1.8,37.1,2.8,27.8,1.8,57.8-11.3,72.9-33.8,1.8-2.7,6-1.3,5.9,2ZM535.4,382.1c0-7.7-6.3-14-14-14s-14,6.3-14,14,6.3,14,14,14,14-6.3,14-14ZM617.9,481c-7.7,0-14,6.3-14,14s6.3,14,14,14,14-6.3,14-14-6.2-14-14-14ZM720,266.3c0,24.5-33.7,46-60.6,46s-31.9-9-32.5-31.9c-1.4-52.1.8-74.9,21.4-80,2.4-.6,4.6-.9,6.6-.9,12.4,0,20,11.6,53,42.7,8.6,8,12.1,16.2,12.1,24.1ZM710,266.4c0-5.7-3-11.3-8.8-16.8-8.4-7.9-15.2-14.6-20.7-20-15.1-14.8-20.6-20-25.5-20s-2.5.2-4.3.6c-4.4,1.1-8.9,3.1-11.6,14.9-2.7,11.9-2.9,30.6-2.2,55.1.4,14.9,7.7,22.2,22.5,22.2s24.3-4.6,34.6-11.9c10.2-7.4,16-16.2,16-24.1ZM371.3,360l282.3,282.3-11.3,11.3-293.1,66.4-128.5-66.3H77.7l-11.3-11.3,282.3-282.4L66.3,77.7l11.3-11.3L370.8,0l128.5,66.3h143l11.3,11.3-282.3,282.4ZM426.7,199.1l41.4,41.5,164.2-164.2h-129.7l-75.9,122.7ZM403.5,75.1c0,7.7,6.3,14,14,14s14-6.3,14-14-6.3-14-14-14-14,6.2-14,14ZM276.6,149l-155.5-39.2,131.9,131.9,23.6-6.7v-86ZM279.3,139.4L359.4,12.8,86,74.7l21.3,21.3,172,43.4ZM286.6,232.2l127.4-36-46-178.2-81.4,128.6v85.6h0ZM374.1,123.1c0,7.7-6.3,14-14.1,14s-14.1-6.3-14.1-14,6.3-14,14.1-14,14.1,6.2,14.1,14ZM345.9,596.9c0-7.7,6.3-14,14.1-14s14.1,6.3,14.1,14-6.3,14-14.1,14-14.1-6.2-14.1-14ZM360,294.6c7.7,0,14-6.3,14-14s-6.3-14-14-14-14,6.3-14,14,6.3,14,14,14ZM225.4,630.7l67.9-109.8-41.4-41.4-164.2,164.2h129.7l8-13ZM316.5,644.9c0-7.7-6.3-14-14-14s-14,6.3-14,14,6.3,14,14,14,14-6.2,14-14ZM443.4,571l155.5,39.2-131.9-131.9-23.6,6.7v86h0ZM440.7,580.6l-80.1,126.6,273.4-61.9-21.3-21.3-172-43.4ZM433.4,487.8l-127.4,36,46,178.2,81.4-128.6v-85.6h0ZM360,425.4c-7.7,0-14,6.3-14,14s6.3,14,14,14,14-6.3,14-14-6.3-14-14-14ZM689.5,450.4c-4.3-4.1-8.3-5.6-12.3-5.6v10c.6,0,2.3,0,5.4,2.9,5.2,4.9,5.2,7.8,5.2,8.7,0,6.9-9.8,18-20.6,29-4,4.1-6.1,6.3-8.5,8.7-2.3,2.4-4.9,5-9.7,9.9-15,15.3-21.5,16.6-27.3,16.6s-2.7,0-4.5-.3c-8.8-.9-16.6-9.3-25.1-27.3-3.8-8-3.7-15.3.3-21.6,4.7-7.4,14.4-12.6,23.6-12.6s4.4.3,6.3,1c4.2,1.5,8.4,2.2,12.6,2.2,12.1,0,21.7-6.1,29.5-11,4.7-3,9.6-6.1,12.8-6.1v-10c-13,0-25,17.1-42.3,17.1s-6-.5-9.3-1.6c-3-1.1-6.3-1.6-9.6-1.6-21.3,0-46.3,20.4-32.9,48.5,8.6,18.1,18.3,31.5,33.1,33,1.9.2,3.7.3,5.5.3,9.8,0,18.8-3.6,34.4-19.6,9.6-9.8,10.1-10.4,18.1-18.6,22.7-22.9,31.6-36.5,15.3-52ZM674.7,250.4c-7.7,0-14,6.3-14,14s6.3,14,14,14,14-6.3,14-14-6.3-14-14-14ZM211.1,554.8c-7.7,0-14,6.3-14,14s6.3,14,14,14,14-6.3,14-14-6.3-14-14-14ZM507.9,651.7c7.7,0,14-6.3,14-14s-6.3-14-14-14-14,6.3-14,14c0,7.7,6.3,14,14,14Z"/>
  </g>
</svg>