<?xml version="1.0" encoding="UTF-8"?>
<svg id="Layer_1" data-name="Layer 1" xmlns="http://www.w3.org/2000/svg" xmlns:xlink="http://www.w3.org/1999/xlink" version="1.1" viewBox="0 0 720 720">
  <defs>
    <style>
      .cls-1 {
        clip-path: url(#clippath);
      }

      .cls-2 {
        fill: none;
      }

      .cls-2, .cls-3 {
        stroke-width: 0px;
      }

      .cls-3 {
        fill: #ffffff;
      }
    </style>
    <clipPath id="clippath">
      <rect class="cls-2" width="720" height="720"/>
    </clipPath>
  </defs>
  <g class="cls-1">
    <path class="cls-3" d="M347.2,168.8l6.4,11.1h12.8l6.4-11.1-6.4-11.1h-12.8l-6.4,11.1ZM360,162.5c3.5,0,6.3,2.8,6.3,6.3s-2.8,6.3-6.3,6.3-6.3-2.8-6.3-6.3,2.8-6.3,6.3-6.3ZM332.1,168.8c0,15.4,12.5,27.9,27.9,27.9s27.9-12.5,27.9-27.9-12.5-27.9-27.9-27.9c-15.4,0-27.9,12.5-27.9,27.9ZM377.9,168.8c0,9.9-8,17.9-17.9,17.9s-17.9-8-17.9-17.9,8-17.9,17.9-17.9c9.9,0,17.9,8,17.9,17.9ZM574.7,600.1l28.1,28.1c-15.2-9.7-31.5-14.2-51-14.2s-36.9,4.8-52.5,15.2c-14.2,9.4-25.5,21.9-37.5,35.1-12.1,13.4-24.6,27.2-40.5,37.7-18.2,12-38.2,17.9-61.4,17.9s-43.2-5.9-61.4-17.9c-15.8-10.5-28.4-24.3-40.5-37.7-12-13.2-23.3-25.8-37.5-35.1-15.5-10.4-32.2-15.2-52.3-15.2s-35.7,4.5-51,14.2l28.1-28.1c7.3-1.4,14.9-2.1,22.8-2.1,23.1,0,43.2,5.9,61.4,17.9,15.8,10.5,28.4,24.3,40.5,37.7,12,13.2,23.3,25.8,37.5,35.1,15.7,10.4,32.4,15.2,52.5,15.2s36.9-4.8,52.5-15.2c14.2-9.4,25.5-21.9,37.5-35.1,12.1-13.4,24.6-27.2,40.5-37.7,18.2-12,38.2-17.9,61.4-17.9,7.9,0,15.5.7,22.8,2.1ZM230.1,74v17.9l-78.7,34.1,7.6,7.6,201-87.1,201.3,86.8,7.6-7.6-79-34v-17.9l91.2,39.6,12.2-12.2L360,0,126.9,101.5l12.2,12.2,91-39.7ZM365,19.6l114.9,49.9v17.8l-114.9-49.6v-18.1ZM240.1,69.7l114.9-50v18.1l-114.9,49.7v-17.8ZM288.9,168.8c0,39.2,31.9,71.1,71.1,71.1s71.1-31.9,71.1-71.1-31.9-71.1-71.1-71.1-71.1,31.9-71.1,71.1ZM421.1,168.8c0,33.7-27.4,61.1-61.1,61.1s-61.1-27.4-61.1-61.1,27.4-61.1,61.1-61.1,61.1,27.4,61.1,61.1ZM360,579.1c15.4,0,27.9-12.5,27.9-27.9s-12.5-27.9-27.9-27.9-27.9,12.5-27.9,27.9,12.5,27.9,27.9,27.9ZM360,533.4c9.9,0,17.9,8,17.9,17.9s-8,17.9-17.9,17.9-17.9-8-17.9-17.9,8-17.9,17.9-17.9ZM720,322.7c0-23.4-9.3-48-27.5-67.8l-6.5-6.5c-37.1-34.1-91.1-37-122.4-5.7l-154.8,154.8-37.5-37.5L653.7,77.7l-11.3-11.3-282.4,282.3L77.7,66.3l-11.4,11.4,110.2,110.2L21.8,342.7c-14.6,14.6-21.8,34.1-21.8,54.6s9.3,48,27.5,67.8l6.5,6.5c37.1,34.1,91.1,37,122.4,5.7l154.8-154.8,37.5,37.5L66.3,642.3l11.3,11.3,282.4-282.3,282.3,282.3,11.3-11.3-110.2-110.2,154.8-154.8c14.6-14.6,21.8-34.1,21.8-54.6ZM122.9,351.2c-3.3,0-6-2.7-6-6s2.7-6,6-6,6,2.7,6,6-2.7,6-6,6ZM153.8,382.2c-3.3,0-6-2.7-6-6s2.7-6,6-6,6,2.7,6,6-2.7,6-6,6ZM154.8,319.3c-3.3,0-6-2.7-6-6s2.7-6,6-6,6,2.7,6,6-2.7,6-6,6ZM185.7,350.3c-3.3,0-6-2.7-6-6s2.7-6,6-6,6,2.7,6,6-2.7,6-6,6ZM534.3,381.7c-3.3,0-6-2.7-6-6s2.7-6,6-6,6,2.7,6,6-2.7,6-6,6ZM565.2,412.7c-3.3,0-6-2.7-6-6s2.7-6,6-6,6,2.7,6,6-2.7,6-6,6ZM566.2,349.8c-3.3,0-6-2.7-6-6s2.7-6,6-6,6,2.7,6,6-2.7,6-6,6ZM597.1,380.8c-3.3,0-6-2.7-6-6s2.7-6,6-6,6,2.7,6,6-2.7,6-6,6ZM360,622.3c39.2,0,71.1-31.9,71.1-71.1s-31.9-71.1-71.1-71.1-71.1,31.9-71.1,71.1,31.9,71.1,71.1,71.1ZM360,490.2c33.7,0,61.1,27.4,61.1,61.1s-27.4,61.1-61.1,61.1-61.1-27.4-61.1-61.1,27.4-61.1,61.1-61.1ZM366.4,562.4l6.4-11.1-6.4-11.1h-12.8l-6.4,11.1,6.4,11.1h12.8ZM360,544.9c3.5,0,6.3,2.8,6.3,6.3s-2.8,6.3-6.3,6.3-6.3-2.8-6.3-6.3,2.8-6.3,6.3-6.3Z"/>
  </g>
</svg>