<?xml version="1.0" encoding="UTF-8"?>
<svg id="Layer_1" data-name="Layer 1" xmlns="http://www.w3.org/2000/svg" xmlns:xlink="http://www.w3.org/1999/xlink" version="1.1" viewBox="0 0 720 720">
  <defs>
    <style>
      .cls-1 {
        clip-path: url(#clippath);
      }

      .cls-2 {
        fill: none;
      }

      .cls-2, .cls-3 {
        stroke-width: 0px;
      }

      .cls-3 {
        fill: #ffffff;
      }
    </style>
    <clipPath id="clippath">
      <rect class="cls-2" width="720" height="720"/>
    </clipPath>
  </defs>
  <g class="cls-1">
    <path class="cls-3" d="M43,417.2l-7.4-7.4,13.4-30.5,10.4,10.4-16.4,27.5ZM152,223.4l-87-87,71.3-71.4,87,87-7.1,7.1-16-16-25.1,25.1,16,16-7.1,7.1-16-16-25,25.1,16,16-7,7ZM168.3,111.1l-25.1,25.1,24.9,24.9,25.1-25.1-24.9-24.9ZM111.2,104.2l24.9,24.9,25.1-25.1-24.9-24.9-25.1,25.1ZM104,161.3l25.1-25.1-24.9-24.9-25.1,25.1,24.9,24.9ZM136,193.3l25.1-25.1-24.9-24.9-25.2,25.1,25,24.9ZM76.5,464.9l-45.1-45.1-7.1,7.1,45.1,45.1,7.1-7.1ZM9.3,441.9c-12.4,12.4-12.4,32.6,0,45.1,12.4,12.5,32.6,12.4,45.1,0l7.9-7.9-45.1-45.1-7.9,7.9ZM122.2,284.7l-7.8-22.8c-1-2.9-3.6-4.9-6.7-5s-5.9,1.6-7.1,4.5l-47.3,108.1,11.4,11.4,57.5-96.2ZM130.2,277.1l203.6-203.6-7.1-7.1-200.1,200.2,3.6,10.5ZM207,365l-2.5-22.9c-.3-3.2-2.7-5.7-5.8-6.3l-26.5-4.8-78.7,78.7,14.5,14.5,99-59.2ZM50.3,424.5l7.2,7.2,21.9-21.9-12.7-12.8-16.4,27.5ZM154.1,291.7l-22.9-2.5-59.3,99,14.5,14.5,78.7-78.7-4.8-26.5c-.5-3.1-3-5.5-6.2-5.8ZM229.6,369.6L525.7,73.5l-7.1-7.1L219.1,366l10.5,3.6ZM99.2,429.5l-12.7-12.7-21.9,21.9,7.2,7.2,27.4-16.4ZM116.9,447.2l-10.4-10.4-27.5,16.4,7.4,7.4,30.5-13.4ZM312.2,255l7.1-7.1-23.1-23.1-71.4,71.4,23.1,23.1,7.1-7.1-16-16,25.1-25.1,16,16,7.1-7.1-16-16,25.1-25.1,15.9,16.1ZM183.9,241.2l-7.1,7.1,23.1,23.1,71.4-71.4-23.1-23.1-7.1,7.1,16,16-25.1,25.1-16-16-7.1,7.1,16,16-25.1,25.1-15.9-16.1ZM234.8,395.5c2.8-1.2,4.6-4,4.5-7.1s-2.1-5.7-5-6.7l-22.8-7.8-96.2,57.5,11.4,11.4,108.1-47.3ZM174.9,321.3l6,1.1,248.9-248.9-7.1-7.1-248.9,248.9,1.1,6ZM536.1,478.9l7.1-7.1-23.1-23.1-71.4,71.4,23.1,23.1,7.1-7.1-16-16,25.1-25.1,16,16,7.1-7.1-16-16,25.1-25.1,15.9,16.1ZM589.8,443l-203.7,203.6,7.1,7.1,200.1-200.1-3.5-10.6ZM407.8,465.1l-7.1,7.1,23.1,23.1,71.4-71.4-23.1-23.1-7.1,7.1,16,16-25.1,25.1-16-16-7.1,7.1,16,16-25.1,25.1-15.9-16.1ZM568,496.7l87,87-71.4,71.4-87-87,7.1-7.1,16,16,25.1-25.1-16-16,7.1-7.1,16,16,25.1-25.1-16-16,7-7ZM551.7,609l25.1-25.1-24.9-24.9-25.1,25.1,24.9,24.9ZM608.8,615.9l-24.9-24.9-25.1,25.1,24.9,24.9,25.1-25.1ZM616,558.8l-25.1,25.1,24.9,24.9,25.1-25.1-24.9-24.9ZM584,526.8l-25,25.1,24.9,24.9,25.1-25.1-25-24.9ZM545.1,398.8l-6-1.1-248.9,248.9,7.1,7.1,248.9-248.9-1.1-6ZM597.8,435.4l7.8,22.8c1,2.9,3.6,4.9,6.7,5,3.1.1,5.9-1.6,7.1-4.5l47.4-108.1-11.4-11.4-57.6,96.2ZM643.5,255.3l45.1,45.1,7.1-7.1-45.1-45.1-7.1,7.1ZM710.7,233.2c-12.4-12.4-32.6-12.4-45.1,0l-7.9,7.9,45.1,45.1,7.9-7.9c12.4-12.5,12.4-32.7,0-45.1ZM660.6,330.4l10.4,10.4,13.4-30.5-7.4-7.4-16.4,27.5ZM330,401.4l-252.3,252.3-11.3-11.3,252.3-252.3-45.9-45.9,7.1-7.1,16,16,25.1-25.1-16-16,7.1-7.1,16,16,25.1-25.1-16-16,7.1-7.1,45.9,45.9,252.2-252.2,11.3,11.3-252.4,252.3,45.9,45.9-7.1,7.1-16-16-25.1,25.1,16,16-7.1,7.1-16-16-25.1,25.1,16,16-7,7-45.8-45.9ZM384.9,392l-22.8-22.8-25.1,25.1,22.8,22.8,25.1-25.1ZM369.2,362.2l22.8,22.8,25.1-25.1-22.8-22.8-25.1,25.1ZM335.1,328.1l22.8,22.8,25.1-25.1-22.8-22.8-25.1,25.1ZM325.7,383l25.1-25.1-22.8-22.7-25.1,25.1,22.8,22.7ZM521.3,384.3l26.5,4.8,78.7-78.7-14.5-14.5-99,59.3,2.5,22.9c.3,3.1,2.7,5.7,5.8,6.2ZM490.4,350.6l-296.1,296,7.1,7.1,299.6-299.6-10.6-3.5ZM485.1,324.6c-2.8,1.2-4.6,4-4.5,7.1s2.1,5.7,5,6.7l22.8,7.8,96.2-57.5-11.4-11.4-108.1,47.3ZM603.1,272.9l10.4,10.4,27.5-16.4-7.4-7.4-30.5,13.4ZM565.9,428.4l22.9,2.5,59.3-99-14.5-14.5-78.7,78.7,4.8,26.5c.4,3.1,3,5.5,6.2,5.8ZM620.8,290.6l12.7,12.7,21.9-21.9-7.2-7.2-27.4,16.4ZM669.7,295.6l-7.2-7.2-21.9,21.9,12.7,12.7,16.4-27.4Z"/>
  </g>
</svg>