<?xml version="1.0" encoding="UTF-8"?>
<svg id="Layer_1" data-name="Layer 1" xmlns="http://www.w3.org/2000/svg" xmlns:xlink="http://www.w3.org/1999/xlink" version="1.1" viewBox="0 0 720 720">
  <defs>
    <style>
      .cls-1 {
        clip-path: url(#clippath);
      }

      .cls-2 {
        fill: none;
      }

      .cls-2, .cls-3 {
        stroke-width: 0px;
      }

      .cls-3 {
        fill: #ffffff;
      }
    </style>
    <clipPath id="clippath">
      <rect class="cls-2" width="720" height="720"/>
    </clipPath>
  </defs>
  <g class="cls-1">
    <path class="cls-3" d="M93,601.5C22.8,523.9-7.7,423.2,1.6,325.5l10,1c-9.1,94.8,20.4,192.6,88.5,268l-7.1,7ZM402.3,639.7c.5-1.7,1.8-3,3.5-3.5,4.8-1.3,10.6-4.3,11.5-6.5.1-.2.2-.6-.6-1.7-5.3-7.6-29.8-34.9-56-60.2-44.6-43.1-60.4-48.8-65.1-49.2h-.5c.1,1.2.6,2.4,1.3,3.5,3.2,4.9,9.5,15.6,19.9,37.7,2.9,6.1,5.7,13.6,8.4,21.8h12.5c2.8,0,5,2.2,5,5s-2.2,5-5,5h-9.3c.9,2.9,1.7,5.8,2.6,8.8h14.8c2.8,0,5,2.2,5,5s-2.2,5-5,5h-12.1c.8,2.9,1.5,5.9,2.3,8.8h17.8c2.8,0,5,2.2,5,5s-2.2,5-5,5h-15.4c.7,3,1.4,5.9,2.1,8.8h21.4c2.8,0,5,2.2,5,5s-2.2,5-5,5h-19.1c2.4,10.8,4.1,19.7,5.1,24.7.5,2.3,3.2,3.4,5.1,2,5.9-4.2,7.9-10.3,7.9-10.3,0,0,23-4.9,38.8,12.7,15.7,17.7,4.3,41.3,4.3,41.3,1.7,1.1,3.7,1.7,5.6,1.7s5.3-1,7.2-3c9.4-9.3,18.1-15.2,23.5-18.4-1.3-6-7.4-23.5-36.2-54.1-1.3-1.4-1.8-3.2-1.3-4.9ZM399.5,216.7c9.7,2.4,16.4-1.5,20.8-5.9-33-8.4-116.4-100.5-125.3-113.1-3.1-4.5-2.7-8.4-1.7-10.9,1.7-4.7,6.5-8,10.9-10-23.3-25.8-30.7-42.5-33.1-51.2-4.7,1.5-12.9,4.1-20.3,6.4-3.7,1.1-6.7,4-7.8,7.7-8.9,30.2,40.9,73.2,69.5,103.9,40.5,40.2,68.1,68.4,87,73.1ZM317.7,80.3c-.5,1.7-1.8,3-3.5,3.5-4.8,1.3-10.6,4.3-11.5,6.5-.1.2-.2.6.6,1.7,5.3,7.6,29.8,34.9,56,60.2,44.6,43.1,60.4,48.8,65.1,49.2h.5c-.1-1.2-.6-2.4-1.3-3.5-3.2-4.9-9.5-15.6-19.9-37.7-2.9-6.1-5.7-13.6-8.4-21.8h-12.5c-2.8,0-5-2.2-5-5s2.2-5,5-5h9.3c-.9-2.9-1.7-5.8-2.6-8.8h-14.8c-2.8,0-5-2.2-5-5s2.2-5,5-5h12.1c-.8-2.9-1.5-5.9-2.3-8.8h-17.8c-2.8,0-5-2.2-5-5s2.2-5,5-5h15.4c-.7-3-1.4-5.9-2.1-8.8h-21.4c-2.8,0-5-2.2-5-5s2.2-5,5-5h19.1c-2.4-10.8-4.1-19.7-5.1-24.7-.5-2.3-3.2-3.4-5.1-2-5.9,4.2-7.9,10.3-7.9,10.3,0,0-23,4.9-38.8-12.7s-4.3-41.3-4.3-41.3c-1.6-1-3.5-1.6-5.5-1.6s-5.3,1-7.2,3c-9.4,9.3-18.1,15.2-23.5,18.4,1.3,6,7.4,23.5,36.2,54.1,1.2,1.3,1.7,3.1,1.2,4.8ZM601.7,590.3l51.9,52-11.3,11.3-52-52c-28,26.7-60.7,48.7-96.6,64.4-.7-5.1-2.3-10.3-4.5-15.5,33.3-14.9,63.7-35.4,89.8-60.2l-66.4-66.3c-25.2,23.5-54.5,40.1-85.5,49.8-2.7-2.8-5.3-5.5-7.7-8.1,31.2-9,60.8-25.2,86.1-48.8l-134-134.1c-7.2,3.6-15.7,3.6-22.9,0l-134.2,134.1c25.6,23.7,55.5,40.1,87.1,49l.3.6c1.5,3.2,3,6.9,4.6,11-36-8.8-70.2-26.7-99.1-53.6l-66.3,66.4c50.7,48.2,117.1,79.9,190.8,86.4.4,2.3,1.9,9.6,7.7,16.6-81.1-4.9-154.5-39-209.8-91.7l-52,52-11.3-11.3,270.9-270.9c-3.6-7.2-3.6-15.7,0-22.9l-27-27c-15.2,19.7-17.3,46.2-6,67.7l-27.8,29c-20.2-29-23.7-66.1-10.3-97.8l-9.2-3.9c-14.9,35.4-10.8,76.9,12.3,108.9l-12.8,12.8c-24.2-32-31.7-72.7-22.3-110.1l-9.7-2.4c-10.2,40.7-2,85,24.8,119.7l-12.8,12.8c-26.2-32.9-37.4-73.7-33.6-113.4l-10-1c-4.1,42.6,8.1,86.4,36.4,121.5l-12.8,12.8c-44.8-54.3-54-128-27.8-190.3l-9.2-3.9c-27.8,66-17.8,144,29.9,201.3l-12.9,12.8c-60.2-71.2-66.6-172.3-19-249.8l-8.5-5.2c-49.9,81.3-43.1,187.6,20.5,262.1l-12.8,12.8c-57.1-66.2-72.5-155.8-46.2-234.7l-9.5-3.2c-27.5,82.3-11.2,176,48.6,244.9l-12.8,12.8c-60.1-68.6-79.7-160.2-58.6-243.8l-9.7-2.4c-21.9,86.9-1.4,182.2,61.2,253.3l-12.7,12.7c-77.8-87.7-95.1-210.1-51.7-313.2l-9.2-3.9c-45,106.8-27,233.6,53.8,324.2l-18.4,18.4C-4.6,453.9-2.3,256.2,118.2,129.7l-51.9-52,11.3-11.3,52,52c28-26.7,60.7-48.6,96.6-64.4.7,5.1,2.3,10.3,4.5,15.5-33.3,14.9-63.7,35.4-89.8,60.2l66.4,66.4c25.2-23.5,54.5-40.1,85.5-49.8,2.7,2.8,5.3,5.5,7.7,8.1-31.2,9-60.8,25.2-86.1,48.7l134.1,134.1c7.2-3.6,15.7-3.6,22.9,0l134.1-134.1c-25.6-23.7-55.5-40.1-87.1-49-.1-.2-.2-.4-.3-.7-1.5-3.2-3-6.9-4.6-11,36,8.8,70.2,26.7,99.1,53.6l66.4-66.4c-50.7-48.2-117.1-79.9-190.8-86.4-.4-2.3-1.9-9.6-7.7-16.6,81.1,4.9,154.5,39,209.8,91.7l52-52,11.3,11.3-270.8,270.9c3.6,7.2,3.6,15.7,0,22.9l27,27c15.2-19.6,17.3-46.1,6.1-67.5l27.8-29.2c20.2,29,23.7,66.1,10.3,97.8l9.2,3.9c14.9-35.4,10.8-76.9-12.3-108.9l12.8-12.8c24.2,32,31.7,72.7,22.3,110.1l9.7,2.4c10.2-40.7,2-85-24.8-119.7l12.8-12.8c26.2,32.9,37.4,73.7,33.6,113.4l10,1c4.1-42.6-8.1-86.4-36.4-121.5l12.8-12.8c44.8,54.3,54,128,27.8,190.3l9.2,3.9c27.8-66,17.8-144-29.9-201.3l12.7-12.7c60.2,71.2,66.6,172.3,19,249.8l8.5,5.2c49.9-81.3,43.1-187.6-20.5-262.1l12.8-12.8c57.1,66.2,72.5,155.8,46.2,234.7l9.5,3.2c27.5-82.3,11.2-176-48.6-244.9l12.8-12.8c60.1,68.6,79.7,160.2,58.6,243.8l9.7,2.4c21.9-86.9,1.4-182.2-61.2-253.3l12.7-12.7c77.8,87.7,95.1,210.1,51.7,313.2l9.2,3.9c44.9-106.7,26.9-233.5-53.8-324.2l18.4-18.4c116.1,129.1,113.8,326.8-6.8,453.3ZM375.5,360c0-8.6-6.9-15.5-15.5-15.5s-15.5,6.9-15.5,15.5,6.9,15.5,15.5,15.5,15.5-6.9,15.5-15.5ZM627,118.5l-7.1,7.1c68.1,75.4,97.6,173.2,88.5,268l10,1c9.3-97.8-21.2-198.5-91.4-276.1ZM320.5,503.3c-9.7-2.4-16.4,1.5-20.8,5.9,33.1,8.4,116.4,100.5,125.3,113.1,3.1,4.5,2.7,8.4,1.7,10.9-1.7,4.7-6.5,8-10.9,10,23.3,25.8,30.7,42.5,33.1,51.2,4.7-1.5,12.9-4.1,20.3-6.4,3.7-1.1,6.7-4,7.8-7.7,8.9-30.2-40.9-73.2-69.5-103.9-40.5-40.2-68.1-68.4-87-73.1Z"/>
  </g>
</svg>