<?xml version="1.0" encoding="utf-8"?>
<!-- Generator: Adobe Illustrator 27.8.1, SVG Export Plug-In . SVG Version: 6.00 Build 0)  -->
<svg version="1.1" id="Layer_1" xmlns="http://www.w3.org/2000/svg" xmlns:xlink="http://www.w3.org/1999/xlink" x="0px" y="0px"
	 viewBox="0 0 80 120" style="enable-background:new 0 0 80 120;" xml:space="preserve">
<style type="text/css">
	.st0{fill:#FFFFFF;}
	.st1{fill:#1D1D1B;}
	.st2{fill-rule:evenodd;clip-rule:evenodd;fill:#1D1D1B;}
</style>
<g>
	<path class="st0" d="M1,81c0,21.5,17.4,39,39,39s39-17.4,39-39V39C79,17.4,61.5,0,40,0S1,17.4,1,39V81z"/>
	<path class="st1" d="M40,0.6c5.2,0,10.2,1,14.9,3c4.6,1.9,8.7,4.7,12.2,8.2c3.5,3.5,6.3,7.6,8.2,12.2c2,4.7,3,9.7,3,14.9V81
		c0,5.2-1,10.2-3,14.9c-1.9,4.6-4.7,8.7-8.2,12.2c-3.5,3.5-7.6,6.3-12.2,8.2c-4.7,2-9.7,3-14.9,3c-5.2,0-10.2-1-14.9-3
		c-4.6-1.9-8.7-4.7-12.2-8.2c-3.5-3.5-6.3-7.6-8.2-12.2c-2-4.7-3-9.7-3-14.9V39c0-5.2,1-10.2,3-14.9c1.9-4.6,4.7-8.7,8.2-12.2
		c3.5-3.5,7.6-6.3,12.2-8.2C29.8,1.6,34.8,0.6,40,0.6 M40,0C18.5,0,1,17.4,1,39V81c0,21.5,17.4,39,39,39s39-17.4,39-39V39
		C79,17.4,61.5,0,40,0L40,0z"/>
</g>
<g>
	<path class="st1" d="M33.1,81c0.2-0.1,0.5-0.1,0.7-0.1v-0.5h-0.7V81z"/>
	<g>
		<path class="st1" d="M19,80.5c-0.3-0.2-0.7-0.2-1.1-0.2h-1.2V85h0.7c0-0.3,0-0.5,0.1-0.8c0.2-0.4,0.6-0.6,1-0.8
			c0.4-0.2,0.8-0.4,1.1-0.8c0.2-0.3,0.3-0.8,0.2-1.2C19.8,81,19.5,80.7,19,80.5 M19,82.3c-0.2,0.3-0.5,0.4-0.7,0.5
			c-0.3,0.1-0.6,0.3-0.8,0.5V81h0.7c0.4,0,0.8,0.1,1,0.5C19.2,81.7,19.2,82,19,82.3"/>
		<path class="st1" d="M24.4,80.5c-0.6-0.4-1.5-0.2-2,0.3c-0.2,0.3-0.4,0.6-0.4,1c0,0.1,0,3.3,0,3.3h0.7v-1.5c0.4-0.1,0.9,0,1.2,0.2
			c0.3,0.2,0.5,0.6,0.5,1c0,0.1,0,0.3,0,0.3h0.7v-3.1C25.1,81.3,24.9,80.8,24.4,80.5 M24.4,83.3c-0.4-0.4-1.1-0.6-1.7-0.5V82
			c0-0.1,0-0.3,0-0.4c0.1-0.3,0.3-0.5,0.5-0.6c0.3-0.1,0.6,0,0.8,0.1c0.2,0.2,0.3,0.4,0.3,0.7c0,0.2,0,0.4,0,0.7L24.4,83.3
			C24.4,83.3,24.4,83.3,24.4,83.3"/>
		<path class="st1" d="M30,83.3c-0.1,0-0.2-0.1-0.3-0.1c0.2-0.1,0.5-0.3,0.6-0.5c0.1-0.2,0.2-0.4,0.3-0.7c0.1-0.5-0.1-1-0.5-1.3
			c-0.6-0.4-1.3-0.4-1.9-0.4h-0.7V85h0.7c0-0.1,0-0.3,0-0.4c0-0.3,0.2-0.6,0.4-0.8c0.3-0.2,0.6-0.2,0.9-0.1c0.3,0.1,0.5,0.4,0.5,0.7
			c0,0.2,0,0.4,0,0.5h0.7c0-0.3,0-0.5,0-0.8C30.7,83.8,30.4,83.5,30,83.3 M29,81c0.5,0,0.9,0.2,1,0.7c0,0.2,0,0.5-0.2,0.7
			c-0.2,0.2-0.4,0.3-0.7,0.4c-0.3,0.1-0.6,0.3-0.8,0.5V81H29z"/>
		<path class="st1" d="M33.1,81.4V85h0.7v-3.7C33.6,81.3,33.3,81.4,33.1,81.4"/>
		<path class="st1" d="M38.6,82.8c-0.3-0.2-0.6-0.3-0.9-0.4c-0.3-0.1-0.6-0.2-0.8-0.4c-0.2-0.2-0.1-0.6,0-0.8
			c0.2-0.2,0.5-0.2,0.8-0.2c0.3,0.1,0.5,0.4,0.5,0.7H39c0-0.3-0.1-0.7-0.3-0.9c-0.2-0.2-0.5-0.4-0.9-0.4c-0.3,0-0.7,0-1,0.2
			c-0.3,0.2-0.5,0.4-0.6,0.7c-0.1,0.3-0.1,0.7,0.1,1c0.2,0.3,0.5,0.5,0.8,0.6c0.3,0.1,0.7,0.2,1,0.5c0.1,0.1,0.2,0.2,0.3,0.4
			c0,0.1,0,0.3,0,0.5c-0.2,0.3-0.6,0.4-0.9,0.4c-0.4-0.1-0.7-0.4-0.7-0.8H36c0,0.4,0.1,0.7,0.4,1c0.3,0.3,0.6,0.4,1,0.4
			c0.4,0,0.8,0,1.1-0.3c0.3-0.2,0.5-0.5,0.5-0.9C39.1,83.5,39,83.1,38.6,82.8"/>
		<path class="st1" d="M45.4,82.9c0.2-0.2,0.3-0.4,0.4-0.6c0.1-0.2,0.1-0.5,0.1-0.7c-0.1-0.5-0.4-0.9-0.8-1.1c-0.4-0.2-1-0.2-1.4,0
			c-0.4,0.2-0.7,0.6-0.8,1.1c0,0.5,0.2,1,0.6,1.3l0.4-0.5c-0.1-0.1-0.3-0.3-0.3-0.5c0-0.2,0-0.4,0.1-0.6c0.2-0.3,0.7-0.4,1.1-0.2
			c0.2,0.1,0.3,0.2,0.4,0.4c0.1,0.2,0,0.4,0,0.6c-0.1,0.2-0.2,0.3-0.3,0.5c-0.5,0.6-1,1.2-1.5,1.8c-0.2,0.2-0.3,0.4-0.5,0.6h3.3
			v-0.7h-1.9L45.4,82.9z"/>
		<path class="st1" d="M52.2,81c-0.7-0.7-1.9-0.9-2.8-0.5c-0.9,0.4-1.5,1.4-1.4,2.4c0.1,1,0.8,1.8,1.8,2.1c1,0.2,2-0.1,2.6-0.9
			c0.6-0.8,0.6-2,0-2.8C52.3,81.2,52.3,81.1,52.2,81 M52,83.4c-0.3,0.7-0.9,1.1-1.7,1c-0.7,0-1.3-0.5-1.5-1.2
			c-0.2-0.7,0-1.5,0.6-1.9c0.6-0.4,1.4-0.5,2,0C52.1,81.7,52.3,82.6,52,83.4"/>
		<path class="st1" d="M57.5,82.9c0.2-0.2,0.3-0.4,0.4-0.6c0.1-0.2,0.1-0.5,0.1-0.7c-0.1-0.5-0.4-0.9-0.8-1.1c-0.4-0.2-1-0.2-1.4,0
			c-0.4,0.2-0.7,0.6-0.8,1.1c0,0.5,0.2,1,0.6,1.3l0.4-0.5c-0.1-0.1-0.3-0.3-0.3-0.5c0-0.2,0-0.4,0.1-0.6c0.2-0.3,0.7-0.4,1.1-0.2
			c0.2,0.1,0.3,0.2,0.4,0.4c0.1,0.2,0,0.4,0,0.6c-0.1,0.2-0.2,0.3-0.3,0.5c-0.5,0.6-1,1.2-1.5,1.8c-0.2,0.2-0.3,0.4-0.5,0.6h3.3
			v-0.7h-1.9L57.5,82.9z"/>
		<path class="st1" d="M62.6,81.6v1.6c-0.3-0.2-0.8-0.3-1.1-0.5c-0.3-0.2-0.4-0.5-0.4-0.9c0-0.3,0-1.4,0-1.4h-0.7c0,0,0,1,0,1.5
			c0,0.5,0.1,1,0.5,1.3c0.3,0.2,0.6,0.3,0.8,0.4c0.3,0.1,0.5,0.2,0.7,0.4c0.1,0.2,0.2,0.4,0.2,0.6V85h0.7v-3.4H62.6z"/>
	</g>
	<path class="st2" d="M48.3,89.2c-2,0-3.7,1.5-3.8,3.5c0,0,0,0,0,0c-0.1,0-0.2,0-0.4,0c-0.1,0-0.2,0-0.3,0c-0.2-2-1.8-3.5-3.8-3.5
		c-2,0-3.7,1.6-3.8,3.5c0,0,0,0,0,0c-0.1,0-0.2,0-0.4,0c-0.1,0-0.2,0-0.3,0c-0.2-2-1.8-3.5-3.8-3.5c-2.1,0-3.8,1.7-3.8,3.8
		c0,2.1,1.7,3.8,3.8,3.8c0.1,0,0.2,0,0.3,0c0-0.1,0-0.2,0-0.3c0-0.1,0-0.2,0-0.3c-0.1,0-0.2,0-0.3,0c-1.8,0-3.2-1.4-3.2-3.2
		c0-1.8,1.4-3.2,3.2-3.2c1.7,0,3.1,1.3,3.2,3c-1.6,0.4-2.9,1.9-2.9,3.7c0,2.1,1.7,3.8,3.8,3.8c2,0,3.7-1.6,3.8-3.5
		c0.1,0,0.2,0,0.3,0c0.1,0,0.2,0,0.3,0c0-0.1,0-0.2,0-0.3c0-0.1,0-0.2,0-0.3c-0.1,0-0.2,0-0.3,0c-0.1,0-0.2,0-0.3,0
		c-0.1-1.7-1.4-3-2.9-3.4c0,0,0.1,0,0.1,0c0.1-1.7,1.5-3,3.2-3c1.7,0,3.1,1.3,3.2,3c-1.6,0.4-2.9,1.9-2.9,3.7c0,2.1,1.7,3.8,3.8,3.8
		c2,0,3.7-1.6,3.8-3.5c0.1,0,0.2,0,0.3,0c2.1,0,3.8-1.7,3.8-3.8C52.1,90.9,50.4,89.2,48.3,89.2z M34.9,93.5c-0.2,1.2-1,2.2-2.2,2.5
		C32.9,94.9,33.7,93.9,34.9,93.5z M32.7,96.2C32.7,96.2,32.7,96.2,32.7,96.2C32.7,96.2,32.7,96.2,32.7,96.2z M35.9,99.7
		c-1.7,0-3.1-1.3-3.2-3c1.5-0.4,2.7-1.7,2.8-3.4c0.1,0,0.2,0,0.3,0c0.2,0,0.5,0,0.7,0.1c-0.1,0-0.2,0-0.3-0.1c0.1,1.6,1.3,3,2.8,3.4
		C38.9,98.4,37.6,99.7,35.9,99.7z M39,96.1c-1.1-0.4-2-1.3-2.2-2.5C38,93.9,38.8,94.9,39,96.1z M36.5,93.4c0.1,0,0.2,0.1,0.3,0.1
		C36.7,93.5,36.6,93.5,36.5,93.4z M36.3,92.8c0.1,0,0.1,0,0.2,0C36.5,92.8,36.4,92.8,36.3,92.8z M43.1,93.5c-0.2,1.2-1,2.2-2.2,2.5
		C41.2,94.9,42,93.9,43.1,93.5z M41,96.2C41,96.2,41,96.2,41,96.2C41,96.2,41,96.2,41,96.2z M44.1,99.7c-1.7,0-3.1-1.3-3.2-3
		c1.5-0.4,2.7-1.7,2.8-3.4c0.1,0,0.2,0,0.3,0c0.2,0,0.5,0,0.7,0.1c-0.1,0-0.2,0-0.3-0.1c0.1,1.6,1.3,3,2.8,3.4
		C47.2,98.4,45.8,99.7,44.1,99.7z M44.8,93.4c0.1,0,0.2,0,0.3,0.1C45,93.5,44.9,93.5,44.8,93.4z M45.1,93.5c1.1,0.4,2,1.3,2.2,2.5
		C46.2,95.7,45.3,94.7,45.1,93.5z M48.3,96.2c-0.1,0-0.2,0-0.3,0c-0.1-1.7-1.4-3-2.9-3.4c0,0,0.1,0,0.1,0c0.1-1.7,1.5-3,3.2-3
		c1.8,0,3.2,1.4,3.2,3.2C51.5,94.8,50,96.2,48.3,96.2z M44.6,92.8c0.1,0,0.2,0,0.2,0C44.8,92.8,44.7,92.8,44.6,92.8z"/>
	<g>
		<g>
			<defs>
				<path id="SVGID_1_" d="M41.7,51.5c0.3,0.1,0.6,0.2,1.1,0.2c-0.5,1-1.5,1.7-2.8,1.7c-1.2,0-2.3-0.7-2.8-1.7
					c0.5,0,0.8-0.1,1.1-0.2c0.4-0.2,1.1-0.2,1.7,0.3C40.6,51.3,41.3,51.3,41.7,51.5 M35.6,45.7c-2.1-1-3.5-2.9-3.9-5
					c-3.5,8.5,2.6,14.8,8,15.1c0.1,0,0.2,0,0.4,0h0c0.1,0,0.1,0,0.2,0c0.1,0,0.1,0,0.2,0c3.8-0.2,7.8-3.2,8.8-8.2
					c-1,1.2-2.4,2-3.8,2.4c3.7-3.3,3.5-9.4-0.7-12.4c-3.6-2.6-5.3-6.1-4.2-9.9C34.9,31.8,32.9,39.3,35.6,45.7"/>
			</defs>
			<use xlink:href="#SVGID_1_"  style="overflow:visible;fill:#1D1D1B;"/>
			<clipPath id="SVGID_00000155108473534862085620000013603054857571921798_">
				<use xlink:href="#SVGID_1_"  style="overflow:visible;"/>
			</clipPath>
		</g>
		<g>
			<defs>
				<path id="SVGID_00000089552772041392307580000011835988246255421601_" d="M34,24.3c-1.9,0.7-3.6,1.7-5.2,3
					c-1.5,1.3-2.8,2.8-3.8,4.6c-1,1.7-1.7,3.6-2,5.6c-0.3,1.9-0.3,3.9,0,5.9c0.3,1.9,1,3.8,2,5.4c1.9,3.3,5.1,5.9,8.6,7.1
					c-3.3-1.7-6.1-4.4-7.6-7.7c-1.6-3.2-2-6.9-1.2-10.4c0.2-0.9,0.5-1.7,0.8-2.5c0.3-0.8,0.7-1.6,1.2-2.3c0.9-1.5,2.1-2.8,3.4-3.9
					c1.4-1.1,2.9-1.9,4.5-2.5c1.6-0.6,3.3-0.9,5.1-0.9c3.5,0,6.9,1.2,9.6,3.3c1.4,1.1,2.5,2.4,3.5,3.9c0.5,0.7,0.9,1.5,1.2,2.3
					c0.3,0.8,0.6,1.6,0.8,2.5c0.8,3.4,0.4,7.1-1.2,10.4c-1.5,3.3-4.2,6-7.5,7.7c3.5-1.2,6.7-3.8,8.6-7.1c1-1.7,1.7-3.5,2-5.5
					c0.3-1.9,0.3-3.9,0-5.9c-0.2-1-0.4-1.9-0.8-2.9c-0.3-0.9-0.8-1.8-1.3-2.7c-1-1.7-2.3-3.3-3.8-4.5c-1.5-1.3-3.3-2.3-5.2-3
					c-1.9-0.7-3.9-1-5.9-1C37.9,23.2,35.9,23.6,34,24.3"/>
			</defs>
			<use xlink:href="#SVGID_00000089552772041392307580000011835988246255421601_"  style="overflow:visible;fill:#1D1D1B;"/>
			<clipPath id="SVGID_00000165193790472454198780000009005505954785081756_">
				<use xlink:href="#SVGID_00000089552772041392307580000011835988246255421601_"  style="overflow:visible;"/>
			</clipPath>
		</g>
		<g>
			<defs>
				<path id="SVGID_00000008837678265737504800000016259888922932466619_" d="M28.5,23.3c-3.3,2.3-5.9,5.7-7.2,9.5
					c-0.3,1-0.6,1.9-0.8,2.9c-0.2,1-0.3,2-0.3,3c0,2,0.2,4,0.7,5.9c0.3,1,0.6,1.9,1,2.8l0.3,0.7l0.2,0.3l0.2,0.3
					c0.1,0.2,0.2,0.4,0.4,0.6l0.4,0.6c0.6,0.8,1.1,1.6,1.8,2.3c0.7,0.7,1.4,1.4,2.1,2c-1.4-1.4-2.6-2.9-3.5-4.6
					c-0.5-0.8-0.9-1.7-1.2-2.6c-0.3-0.9-0.6-1.8-0.8-2.7c-0.8-3.7-0.5-7.6,0.8-11.1c0.3-0.9,0.8-1.7,1.2-2.5c0.5-0.8,1-1.6,1.6-2.3
					c0.3-0.4,0.6-0.7,0.9-1.1c0.3-0.3,0.6-0.7,1-1c0.7-0.6,1.4-1.2,2.2-1.7c0.8-0.5,1.6-1,2.4-1.4c0.8-0.4,1.7-0.7,2.6-1
					c0.9-0.3,1.8-0.5,2.7-0.6c0.9-0.1,1.8-0.2,2.8-0.2c0.9,0,1.9,0.1,2.8,0.2c0.9,0.1,1.8,0.3,2.7,0.6c0.9,0.3,1.8,0.6,2.6,1
					c0.8,0.4,1.6,0.9,2.4,1.4c0.8,0.5,1.5,1.1,2.2,1.7c0.3,0.3,0.7,0.7,1,1c0.3,0.3,0.6,0.7,0.9,1.1c1.2,1.5,2.1,3.1,2.8,4.8
					c1.4,3.5,1.7,7.4,0.8,11.1c-0.2,0.9-0.5,1.8-0.8,2.7c-0.4,0.9-0.8,1.8-1.2,2.6c-1,1.7-2.1,3.2-3.5,4.6c0.8-0.6,1.5-1.3,2.1-2
					c0.7-0.7,1.3-1.5,1.8-2.3c0.6-0.8,1-1.7,1.5-2.6c0.4-0.9,0.8-1.8,1-2.8c0.5-1.9,0.8-3.9,0.7-5.9c0-1-0.1-2-0.3-3
					c-0.2-1-0.5-2-0.8-2.9c-1.3-3.8-3.9-7.2-7.2-9.5C48.1,21,44,19.7,40,19.7C35.9,19.7,31.8,21,28.5,23.3"/>
			</defs>
			<use xlink:href="#SVGID_00000008837678265737504800000016259888922932466619_"  style="overflow:visible;fill:#1D1D1B;"/>
			<clipPath id="SVGID_00000012470540368845830650000008544067194446823059_">
				<use xlink:href="#SVGID_00000008837678265737504800000016259888922932466619_"  style="overflow:visible;"/>
			</clipPath>
		</g>
	</g>
	<g>
		<g>
			<path class="st1" d="M19.2,66.4c0.4,0.3,0.8,0.6,1.3,0.8c0.5,0.2,1,0.3,1.6,0.3c0.6,0,1.1-0.1,1.6-0.3c0.5-0.2,0.9-0.5,1.3-0.8
				c0.4-0.3,0.6-0.8,0.8-1.2c0.2-0.5,0.3-1,0.3-1.5c0-0.5-0.1-1-0.3-1.5c-0.2-0.5-0.5-0.9-0.8-1.2c-0.4-0.3-0.8-0.6-1.3-0.8
				c-0.5-0.2-1-0.3-1.6-0.3c-0.6,0-1.1,0.1-1.6,0.3c-0.5,0.2-0.9,0.5-1.3,0.8c-0.4,0.3-0.6,0.8-0.8,1.2c-0.2,0.5-0.3,1-0.3,1.5
				c0,0.5,0.1,1,0.3,1.5C18.6,65.6,18.9,66,19.2,66.4z M20.5,63c0.1-0.2,0.2-0.4,0.4-0.5c0.2-0.2,0.3-0.3,0.5-0.4
				c0.2-0.1,0.4-0.1,0.7-0.1c0.2,0,0.5,0,0.7,0.1c0.2,0.1,0.4,0.2,0.5,0.4c0.2,0.2,0.3,0.3,0.4,0.5c0.1,0.2,0.1,0.4,0.1,0.7
				c0,0.2,0,0.5-0.1,0.7c-0.1,0.2-0.2,0.4-0.4,0.5c-0.2,0.2-0.3,0.3-0.5,0.4c-0.2,0.1-0.4,0.1-0.7,0.1c-0.2,0-0.5,0-0.7-0.1
				c-0.2-0.1-0.4-0.2-0.5-0.4c-0.2-0.2-0.3-0.3-0.4-0.5c-0.1-0.2-0.1-0.4-0.1-0.7C20.4,63.4,20.5,63.2,20.5,63z"/>
			<polygon class="st1" points="30.6,65.3 28.6,65.3 28.6,60 26.3,60 26.3,67.4 30.6,67.4 			"/>
			<path class="st1" d="M31.5,65.2c0.3,0.2,0.6,0.3,0.9,0.3l-0.5,1.8h2.4l1.9-7.4h-2.3L33,63.5c-0.2,0-0.4-0.1-0.5-0.3
				c-0.2-0.2-0.2-0.5-0.2-0.9c0-0.3,0-0.7,0.1-1c0.1-0.4,0.1-0.8,0.3-1.3h-2.2c-0.1,0.4-0.2,0.8-0.3,1.2C30,61.6,30,62,30,62.4
				c0,0.7,0.1,1.2,0.4,1.7C30.7,64.6,31,65,31.5,65.2z"/>
			<path class="st1" d="M44.7,67.4V60h-1.1c-0.7,0-1.3,0.1-1.8,0.3c-0.5,0.2-0.9,0.4-1.3,0.8c-0.3-0.3-0.8-0.6-1.3-0.8
				c-0.5-0.2-1.1-0.3-1.8-0.3h-1.1v7.4h2.3v-4.9c0.1,0,0.2,0,0.3,0.1c0.2,0.1,0.3,0.2,0.4,0.3c0.1,0.1,0.1,0.3,0.1,0.5v2.1h2.2v-2.1
				c0-0.2,0-0.4,0.1-0.6c0.1-0.1,0.2-0.2,0.4-0.3c0.1,0,0.2-0.1,0.4-0.1v4.9H44.7z"/>
			<path class="st1" d="M47.4,67.1c0-0.3,0.1-0.5,0.2-0.7c0.1-0.2,0.3-0.4,0.5-0.5c0.2-0.1,0.4-0.3,0.7-0.4c0.3-0.1,0.5-0.3,0.8-0.4
				c0.3-0.2,0.5-0.3,0.7-0.5c0.2-0.2,0.4-0.5,0.5-0.8c0.1-0.3,0.2-0.7,0.2-1.1c0-0.5-0.1-0.9-0.4-1.3c-0.3-0.4-0.6-0.7-1.1-0.9
				c-0.5-0.2-1-0.3-1.6-0.3h-2.8v7.4h2.3V67.1z M47.4,62.1H48c0.2,0,0.4,0.1,0.5,0.2c0.1,0.1,0.2,0.3,0.2,0.4c0,0.1,0,0.2-0.1,0.3
				c0,0.1-0.1,0.2-0.1,0.2c-0.1,0.1-0.1,0.1-0.2,0.2c-0.1,0.1-0.2,0.1-0.3,0.2c-0.1,0.1-0.2,0.1-0.3,0.2c-0.1,0.1-0.2,0.1-0.3,0.2
				V62.1z"/>
			<rect x="51.2" y="60" class="st1" width="2.3" height="7.4"/>
			<path class="st1" d="M57.7,67.5c0.7,0,1.3-0.1,1.9-0.4c0.6-0.3,1-0.7,1.4-1.2c0.4-0.5,0.6-1.1,0.7-1.7h-2.3
				c-0.1,0.2-0.2,0.5-0.3,0.7c-0.2,0.2-0.3,0.3-0.6,0.4c-0.2,0.1-0.5,0.2-0.7,0.2c-0.2,0-0.5,0-0.7-0.1c-0.2-0.1-0.4-0.2-0.5-0.4
				c-0.1-0.2-0.3-0.3-0.3-0.5c-0.1-0.2-0.1-0.4-0.1-0.7c0-0.2,0-0.5,0.1-0.7c0.1-0.2,0.2-0.4,0.3-0.5c0.1-0.2,0.3-0.3,0.5-0.4
				c0.2-0.1,0.4-0.1,0.7-0.1c0.2,0,0.5,0,0.7,0.1c0.2,0.1,0.4,0.2,0.5,0.4c0.2,0.2,0.3,0.3,0.4,0.6h2.3c-0.1-0.6-0.3-1.2-0.7-1.7
				c-0.4-0.5-0.8-0.8-1.4-1.1c-0.6-0.3-1.2-0.4-1.8-0.4c-0.6,0-1.1,0.1-1.6,0.3c-0.5,0.2-0.9,0.5-1.3,0.8c-0.4,0.3-0.6,0.8-0.8,1.2
				c-0.2,0.5-0.3,1-0.3,1.5c0,0.5,0.1,1,0.3,1.5c0.2,0.5,0.5,0.9,0.8,1.2c0.4,0.3,0.8,0.6,1.3,0.8C56.6,67.4,57.2,67.5,57.7,67.5z"
				/>
			<path class="st1" d="M13.4,70.8v-2c-0.3-0.1-0.7-0.1-1.2-0.2c-0.5,0-0.9-0.1-1.4-0.1s-0.9,0-1.4,0.1c-0.5,0-0.9,0.1-1.2,0.2v2
				c0.4-0.1,0.8-0.1,1.2-0.2c0.1,0,0.1,0,0.2,0V76h2.3v-5.4c0.2,0,0.4,0,0.6,0.1C12.8,70.7,13,70.8,13.4,70.8z"/>
			<path class="st1" d="M19.9,69.6c-0.4-0.3-0.8-0.6-1.3-0.8c-0.5-0.2-1-0.3-1.6-0.3c-0.6,0-1.1,0.1-1.6,0.3
				c-0.5,0.2-0.9,0.5-1.3,0.8c-0.4,0.3-0.6,0.8-0.8,1.2c-0.2,0.5-0.3,1-0.3,1.5c0,0.5,0.1,1,0.3,1.5c0.2,0.5,0.5,0.9,0.8,1.2
				c0.4,0.3,0.8,0.6,1.3,0.8c0.5,0.2,1,0.3,1.6,0.3c0.6,0,1.1-0.1,1.6-0.3c0.5-0.2,0.9-0.5,1.3-0.8c0.4-0.3,0.6-0.8,0.8-1.2
				c0.2-0.5,0.3-1,0.3-1.5c0-0.5-0.1-1-0.3-1.5C20.6,70.4,20.3,70,19.9,69.6z M18.6,73c-0.1,0.2-0.2,0.4-0.4,0.5
				c-0.2,0.2-0.3,0.3-0.5,0.4C17.6,74,17.3,74,17.1,74c-0.2,0-0.5,0-0.7-0.1c-0.2-0.1-0.4-0.2-0.5-0.4c-0.2-0.2-0.3-0.3-0.4-0.5
				c-0.1-0.2-0.1-0.4-0.1-0.7c0-0.2,0-0.5,0.1-0.7c0.1-0.2,0.2-0.4,0.4-0.5c0.2-0.2,0.3-0.3,0.5-0.4c0.2-0.1,0.4-0.1,0.7-0.1
				c0.2,0,0.5,0,0.7,0.1c0.2,0.1,0.4,0.2,0.5,0.4c0.2,0.2,0.3,0.3,0.4,0.5c0.1,0.2,0.1,0.4,0.1,0.7C18.8,72.6,18.7,72.8,18.6,73z"/>
			<path class="st1" d="M26.8,73.7c-0.2-0.2-0.5-0.4-0.8-0.6c0.2-0.1,0.3-0.2,0.4-0.4c0.1-0.1,0.3-0.3,0.4-0.4
				c0.1-0.2,0.2-0.4,0.2-0.6c0.1-0.2,0.1-0.4,0.1-0.7c0-0.5-0.1-0.9-0.4-1.3c-0.3-0.4-0.6-0.6-1.1-0.8c-0.5-0.2-1.1-0.3-1.7-0.3
				h-2.6V76h2.3v-0.7c0-0.2,0-0.3,0.1-0.4c0.1-0.1,0.1-0.2,0.3-0.3c0.1-0.1,0.3-0.1,0.4-0.1c0.2,0,0.3,0,0.4,0.1
				c0.1,0.1,0.2,0.2,0.3,0.3c0.1,0.1,0.1,0.3,0.1,0.4V76h2.4v-0.5c0-0.4-0.1-0.7-0.2-1C27.2,74.2,27,73.9,26.8,73.7z M24.8,71.7
				c0,0.1-0.1,0.2-0.1,0.2c-0.1,0.1-0.1,0.1-0.2,0.2c-0.1,0.1-0.2,0.1-0.3,0.2c-0.1,0.1-0.2,0.1-0.3,0.2c-0.1,0.1-0.2,0.1-0.3,0.2
				v-2H24c0.3,0,0.5,0.1,0.6,0.2c0.1,0.1,0.2,0.3,0.2,0.5C24.9,71.6,24.8,71.7,24.8,71.7z"/>
			<path class="st1" d="M32.5,73.5c-0.2,0.2-0.3,0.3-0.6,0.4C31.7,74,31.5,74,31.2,74c-0.2,0-0.5,0-0.7-0.1
				c-0.2-0.1-0.4-0.2-0.5-0.4c-0.1-0.2-0.3-0.3-0.3-0.5c-0.1-0.2-0.1-0.4-0.1-0.7c0-0.2,0-0.5,0.1-0.7c0.1-0.2,0.2-0.4,0.3-0.5
				c0.1-0.2,0.3-0.3,0.5-0.4c0.2-0.1,0.4-0.1,0.7-0.1c0.2,0,0.5,0,0.7,0.1c0.2,0.1,0.4,0.2,0.5,0.4c0.2,0.2,0.3,0.3,0.4,0.6h2.3
				c-0.1-0.6-0.3-1.2-0.7-1.7s-0.8-0.8-1.4-1.1s-1.2-0.4-1.8-0.4c-0.6,0-1.1,0.1-1.6,0.3c-0.5,0.2-0.9,0.5-1.3,0.8
				c-0.4,0.3-0.6,0.8-0.8,1.2c-0.2,0.5-0.3,1-0.3,1.5c0,0.5,0.1,1,0.3,1.5c0.2,0.5,0.5,0.9,0.8,1.2c0.4,0.3,0.8,0.6,1.3,0.8
				c0.5,0.2,1,0.3,1.6,0.3c0.7,0,1.3-0.1,1.9-0.4c0.6-0.3,1-0.7,1.4-1.2c0.4-0.5,0.6-1.1,0.7-1.7h-2.3
				C32.8,73.1,32.7,73.3,32.5,73.5z"/>
			<path class="st1" d="M39,71.6c-0.4,0-0.8,0.1-1.1,0.3c-0.1,0-0.1,0.1-0.2,0.1v-3.3h-2.3V76h2.3v-0.9c0-0.3,0.1-0.5,0.2-0.7
				c0.1-0.2,0.3-0.3,0.4-0.5c0.2-0.1,0.4-0.2,0.7-0.2V76h2.3v-7.4H39V71.6z"/>
			<path class="st1" d="M49.1,73.7c-0.2-0.2-0.5-0.4-0.8-0.6c0.2-0.1,0.3-0.2,0.4-0.4c0.1-0.1,0.3-0.3,0.4-0.4
				c0.1-0.2,0.2-0.4,0.2-0.6c0.1-0.2,0.1-0.4,0.1-0.7c0-0.5-0.1-0.9-0.4-1.3c-0.3-0.4-0.6-0.6-1.1-0.8c-0.5-0.2-1.1-0.3-1.7-0.3
				h-2.6V76h2.3v-0.7c0-0.2,0-0.3,0.1-0.4c0.1-0.1,0.1-0.2,0.3-0.3c0.1-0.1,0.3-0.1,0.4-0.1c0.2,0,0.3,0,0.4,0.1
				c0.1,0.1,0.2,0.2,0.3,0.3c0.1,0.1,0.1,0.3,0.1,0.4V76h2.4v-0.5c0-0.4-0.1-0.7-0.2-1C49.5,74.2,49.4,73.9,49.1,73.7z M47.1,71.7
				c0,0.1-0.1,0.2-0.1,0.2c-0.1,0.1-0.1,0.1-0.2,0.2s-0.2,0.1-0.3,0.2c-0.1,0.1-0.2,0.1-0.3,0.2c-0.1,0.1-0.2,0.1-0.3,0.2v-2h0.4
				c0.3,0,0.5,0.1,0.6,0.2c0.1,0.1,0.2,0.3,0.2,0.5C47.2,71.6,47.2,71.7,47.1,71.7z"/>
			<path class="st1" d="M50.1,76h4.5v-2h-2.3c0.1-0.1,0.2-0.3,0.3-0.4c0.3-0.3,0.8-0.4,1.3-0.4h0.3v-1.9h-0.2c-0.6,0-1,0.1-1.5,0.3
				c-0.1,0.1-0.3,0.2-0.4,0.3v-1.4h2.4v-2h-4.5V76z"/>
			<polygon class="st1" points="57.3,68.7 55,68.7 55,76 59.2,76 59.2,74 57.3,74 			"/>
			<path class="st1" d="M63.9,68.9c-0.4-0.2-0.9-0.4-1.5-0.4c-0.6,0-1.1,0.1-1.5,0.4c-0.4,0.2-0.8,0.6-1,1c-0.2,0.4-0.4,0.9-0.4,1.5
				V76h2.2v-1.4c0.4,0,0.8,0.1,1,0.4c0.2,0.2,0.4,0.6,0.4,1V76h2.2v-4.6c0-0.6-0.1-1.1-0.4-1.5C64.7,69.5,64.4,69.1,63.9,68.9z
				 M61.7,72.6v-1.2c0-0.1,0-0.3,0.1-0.4c0.1-0.1,0.1-0.2,0.2-0.2c0.1-0.1,0.2-0.1,0.4-0.1c0.1,0,0.3,0,0.4,0.1
				c0.1,0.1,0.2,0.1,0.2,0.2c0.1,0.1,0.1,0.2,0.1,0.4V73C62.7,72.7,62.3,72.6,61.7,72.6z"/>
			<path class="st1" d="M69.4,68.7l-0.9,3.5c-0.2,0-0.4-0.1-0.5-0.3c-0.2-0.2-0.2-0.5-0.2-0.9c0-0.3,0-0.7,0.1-1s0.1-0.8,0.3-1.3
				h-2.2c-0.1,0.4-0.2,0.8-0.3,1.2c-0.1,0.4-0.1,0.8-0.1,1.2c0,0.7,0.1,1.2,0.4,1.7c0.3,0.5,0.6,0.9,1.1,1.1
				c0.3,0.2,0.6,0.3,0.9,0.3L67.4,76h2.4l1.9-7.4H69.4z"/>
		</g>
	</g>
</g>
</svg>
